<svg xmlns="http://www.w3.org/2000/svg" xmlns:xlink="http://www.w3.org/1999/xlink" id="terminal" baseProfile="full" viewBox="0 0 704 257" width="704" version="1.1">
    <defs>
        <termtosvg:template_settings xmlns:termtosvg="https://github.com/nbedos/termtosvg">
            <termtosvg:screen_geometry columns="88" rows="15"/>
            <termtosvg:animation type="css"/>
        </termtosvg:template_settings>
        <style type="text/css" id="generated-style"><![CDATA[#screen {
                font-family: 'DejaVu Sans Mono', monospace;
                font-style: normal;
                font-size: 14px;
            }

        text {
            dominant-baseline: text-before-edge;
            white-space: pre;
        }
    
            :root {
                --animation-duration: 6589ms;
            }

            @keyframes roll {
                0.000%{transform:translateY(0px)}
9.607%{transform:translateY(-272px)}
11.064%{transform:translateY(-544px)}
16.012%{transform:translateY(-816px)}
17.818%{transform:translateY(-1088px)}
17.833%{transform:translateY(-1360px)}
17.863%{transform:translateY(-1632px)}
17.909%{transform:translateY(-1904px)}
32.782%{transform:translateY(-2176px)}
33.996%{transform:translateY(-2448px)}
38.837%{transform:translateY(-2720px)}
46.153%{transform:translateY(-2992px)}
47.488%{transform:translateY(-3264px)}
48.687%{transform:translateY(-3536px)}
50.994%{transform:translateY(-3808px)}
58.021%{transform:translateY(-4080px)}
59.781%{transform:translateY(-4352px)}
59.873%{transform:translateY(-4624px)}
59.933%{transform:translateY(-4896px)}
60.009%{transform:translateY(-5168px)}
79.041%{transform:translateY(-5440px)}
80.012%{transform:translateY(-5712px)}
81.712%{transform:translateY(-5984px)}
83.533%{transform:translateY(-6256px)}
84.732%{transform:translateY(-6528px)}
84.823%{transform:translateY(-6800px)}
100.000%{transform:translateY(-6800px)}
            }

            #screen_view {
                animation-duration: 6589ms;
                animation-iteration-count:infinite;
                animation-name:roll;
                animation-timing-function: steps(1,end);
                animation-fill-mode: forwards;
            }
        ]]></style>
        <style type="text/css" id="user-style">
            /* The colors defined below are the default 16 colors used for rendering text of the terminal. Adjust
               them as needed.
               PowerShell colors based on https://en.wikipedia.org/wiki/ANSI_escape_code#Colors */
            .foreground {fill: #cccccc;}
            .background {fill: #0c0c0c;}
            .color0 {fill: #0c0c0c;}
            .color1 {fill: #c50f1f;}
            .color2 {fill: #13a10e;}
            .color3 {fill: #c19c00;}
            .color4 {fill: #0037da;}
            .color5 {fill: #881798;}
            .color6 {fill: #3a96dd;}
            .color7 {fill: #cccccc;}
            .color8 {fill: #767676;}
            .color9 {fill: #e74856;}
            .color10 {fill: #16c60c;}
            .color11 {fill: #f9f1a5;}
            .color12 {fill: #3b78ff;}
            .color13 {fill: #b4009e;}
            .color14 {fill: #61d6d6;}
            .color15 {fill: #f2f2f2;}
        </style>
    </defs>
    <svg id="screen" width="704" height="255" viewBox="0 0 704 255" preserveAspectRatio="xMidYMin slice">
    <rect class="background" height="100%" width="100%" x="0" y="0"/><defs><g id="g1"><text x="0" textLength="16" class="foreground">~ </text><text x="16" textLength="8" class="background"> </text></g><g id="g2"><text x="0" textLength="24" class="foreground">~ w</text><text x="24" textLength="8" class="background"> </text></g><g id="g3"><text x="0" textLength="32" class="foreground">~ wk</text><text x="32" textLength="8" class="background"> </text></g><g id="g4"><text x="0" textLength="32" class="foreground">~ wk</text></g><g id="g5"><text x="0" textLength="8" class="background"> </text></g><g id="g6"><text x="0" textLength="136" class="foreground"> version: 0.4.14 </text></g><g id="g7"><text x="0" textLength="64" class="foreground"> usage: </text></g><g id="g8"><text x="0" textLength="8" class="foreground"> </text><text x="64" textLength="296" class="foreground">wk init  | initializes a new project </text></g><g id="g9"><text x="0" textLength="8" class="foreground"> </text><text x="64" textLength="296" class="foreground">wk start | starts development server </text></g><g id="g10"><text x="0" textLength="8" class="foreground"> </text><text x="64" textLength="304" class="foreground">wk build | creates a production build </text></g><g id="g11"><text x="0" textLength="8" class="foreground"> </text><text x="64" textLength="128" class="foreground">wk help  | docs </text></g><g id="g12"><text x="0" textLength="40" class="foreground">~ wk </text><text x="40" textLength="8" class="background"> </text></g><g id="g13"><text x="0" textLength="48" class="foreground">~ wk i</text><text x="48" textLength="8" class="background"> </text></g><g id="g14"><text x="0" textLength="56" class="foreground">~ wk in</text><text x="56" textLength="8" class="background"> </text></g><g id="g15"><text x="0" textLength="64" class="foreground">~ wk ini</text><text x="64" textLength="8" class="background"> </text></g><g id="g16"><text x="0" textLength="72" class="foreground">~ wk init</text><text x="72" textLength="8" class="background"> </text></g><g id="g17"><text x="0" textLength="72" class="foreground">~ wk init</text></g><g id="g18"><text x="0" textLength="312" class="foreground"> initializing a new javascript project </text></g><g id="g19"><text x="0" textLength="280" class="foreground"> created a new component named app </text></g><g id="g20"><text x="0" textLength="272" class="foreground"> project initialized successfully </text></g><g id="g21"><text x="0" textLength="280" class="foreground"> you can run **start** command now </text></g><g id="g22"><text x="0" textLength="592" class="foreground"> wk start  | auto-builds components and serves them under ./public folder </text></g><g id="g23"><text x="0" textLength="24" class="foreground">~ e</text><text x="24" textLength="8" class="background"> </text></g><g id="g24"><text x="0" textLength="32" class="foreground">~ ex</text><text x="32" textLength="8" class="background"> </text></g><g id="g25"><text x="0" textLength="40" class="foreground">~ exi</text><text x="40" textLength="8" class="background"> </text></g><g id="g26"><text x="0" textLength="48" class="foreground">~ exit</text><text x="48" textLength="8" class="background"> </text></g><g id="g27"><text x="0" textLength="48" class="foreground">~ exit</text></g><g id="g28"><text x="0" textLength="32" class="foreground">exit</text></g></defs><g id="screen_view"><g><rect x="16" y="0" width="8" height="17" class="foreground"/><use xlink:href="#g1" y="0"/></g><g><rect x="24" y="272" width="8" height="17" class="foreground"/><use xlink:href="#g2" y="272"/></g><g><rect x="32" y="544" width="8" height="17" class="foreground"/><use xlink:href="#g3" y="544"/></g><g><use xlink:href="#g4" y="816"/><rect x="0" y="833" width="8" height="17" class="foreground"/><use xlink:href="#g5" y="833"/></g><g><use xlink:href="#g4" y="1088"/><use xlink:href="#g6" y="1105"/><rect x="0" y="1122" width="8" height="17" class="foreground"/><use xlink:href="#g5" y="1122"/></g><g><use xlink:href="#g4" y="1360"/><use xlink:href="#g6" y="1377"/><use xlink:href="#g7" y="1394"/><rect x="0" y="1411" width="8" height="17" class="foreground"/><use xlink:href="#g5" y="1411"/></g><g><use xlink:href="#g4" y="1632"/><use xlink:href="#g6" y="1649"/><use xlink:href="#g7" y="1666"/><use xlink:href="#g8" y="1683"/><use xlink:href="#g9" y="1700"/><use xlink:href="#g10" y="1717"/><use xlink:href="#g11" y="1734"/><rect x="0" y="1751" width="8" height="17" class="foreground"/><use xlink:href="#g5" y="1751"/></g><g><use xlink:href="#g4" y="1904"/><use xlink:href="#g6" y="1921"/><use xlink:href="#g7" y="1938"/><use xlink:href="#g8" y="1955"/><use xlink:href="#g9" y="1972"/><use xlink:href="#g10" y="1989"/><use xlink:href="#g11" y="2006"/><rect x="16" y="2023" width="8" height="17" class="foreground"/><use xlink:href="#g1" y="2023"/></g><g><use xlink:href="#g4" y="2176"/><use xlink:href="#g6" y="2193"/><use xlink:href="#g7" y="2210"/><use xlink:href="#g8" y="2227"/><use xlink:href="#g9" y="2244"/><use xlink:href="#g10" y="2261"/><use xlink:href="#g11" y="2278"/><rect x="24" y="2295" width="8" height="17" class="foreground"/><use xlink:href="#g2" y="2295"/></g><g><use xlink:href="#g4" y="2448"/><use xlink:href="#g6" y="2465"/><use xlink:href="#g7" y="2482"/><use xlink:href="#g8" y="2499"/><use xlink:href="#g9" y="2516"/><use xlink:href="#g10" y="2533"/><use xlink:href="#g11" y="2550"/><rect x="32" y="2567" width="8" height="17" class="foreground"/><use xlink:href="#g3" y="2567"/></g><g><use xlink:href="#g4" y="2720"/><use xlink:href="#g6" y="2737"/><use xlink:href="#g7" y="2754"/><use xlink:href="#g8" y="2771"/><use xlink:href="#g9" y="2788"/><use xlink:href="#g10" y="2805"/><use xlink:href="#g11" y="2822"/><rect x="40" y="2839" width="8" height="17" class="foreground"/><use xlink:href="#g12" y="2839"/></g><g><use xlink:href="#g4" y="2992"/><use xlink:href="#g6" y="3009"/><use xlink:href="#g7" y="3026"/><use xlink:href="#g8" y="3043"/><use xlink:href="#g9" y="3060"/><use xlink:href="#g10" y="3077"/><use xlink:href="#g11" y="3094"/><rect x="48" y="3111" width="8" height="17" class="foreground"/><use xlink:href="#g13" y="3111"/></g><g><use xlink:href="#g4" y="3264"/><use xlink:href="#g6" y="3281"/><use xlink:href="#g7" y="3298"/><use xlink:href="#g8" y="3315"/><use xlink:href="#g9" y="3332"/><use xlink:href="#g10" y="3349"/><use xlink:href="#g11" y="3366"/><rect x="56" y="3383" width="8" height="17" class="foreground"/><use xlink:href="#g14" y="3383"/></g><g><use xlink:href="#g4" y="3536"/><use xlink:href="#g6" y="3553"/><use xlink:href="#g7" y="3570"/><use xlink:href="#g8" y="3587"/><use xlink:href="#g9" y="3604"/><use xlink:href="#g10" y="3621"/><use xlink:href="#g11" y="3638"/><rect x="64" y="3655" width="8" height="17" class="foreground"/><use xlink:href="#g15" y="3655"/></g><g><use xlink:href="#g4" y="3808"/><use xlink:href="#g6" y="3825"/><use xlink:href="#g7" y="3842"/><use xlink:href="#g8" y="3859"/><use xlink:href="#g9" y="3876"/><use xlink:href="#g10" y="3893"/><use xlink:href="#g11" y="3910"/><rect x="72" y="3927" width="8" height="17" class="foreground"/><use xlink:href="#g16" y="3927"/></g><g><use xlink:href="#g4" y="4080"/><use xlink:href="#g6" y="4097"/><use xlink:href="#g7" y="4114"/><use xlink:href="#g8" y="4131"/><use xlink:href="#g9" y="4148"/><use xlink:href="#g10" y="4165"/><use xlink:href="#g11" y="4182"/><use xlink:href="#g17" y="4199"/><rect x="0" y="4216" width="8" height="17" class="foreground"/><use xlink:href="#g5" y="4216"/></g><g><use xlink:href="#g4" y="4352"/><use xlink:href="#g6" y="4369"/><use xlink:href="#g7" y="4386"/><use xlink:href="#g8" y="4403"/><use xlink:href="#g9" y="4420"/><use xlink:href="#g10" y="4437"/><use xlink:href="#g11" y="4454"/><use xlink:href="#g17" y="4471"/><use xlink:href="#g18" y="4488"/><rect x="0" y="4505" width="8" height="17" class="foreground"/><use xlink:href="#g5" y="4505"/></g><g><use xlink:href="#g4" y="4624"/><use xlink:href="#g6" y="4641"/><use xlink:href="#g7" y="4658"/><use xlink:href="#g8" y="4675"/><use xlink:href="#g9" y="4692"/><use xlink:href="#g10" y="4709"/><use xlink:href="#g11" y="4726"/><use xlink:href="#g17" y="4743"/><use xlink:href="#g18" y="4760"/><use xlink:href="#g19" y="4777"/><rect x="0" y="4794" width="8" height="17" class="foreground"/><use xlink:href="#g5" y="4794"/></g><g><use xlink:href="#g4" y="4896"/><use xlink:href="#g6" y="4913"/><use xlink:href="#g7" y="4930"/><use xlink:href="#g8" y="4947"/><use xlink:href="#g9" y="4964"/><use xlink:href="#g10" y="4981"/><use xlink:href="#g11" y="4998"/><use xlink:href="#g17" y="5015"/><use xlink:href="#g18" y="5032"/><use xlink:href="#g19" y="5049"/><rect x="0" y="5066" width="272" height="17" class="color2"/><use xlink:href="#g20" y="5066"/><use xlink:href="#g21" y="5083"/><use xlink:href="#g22" y="5100"/><rect x="0" y="5117" width="8" height="17" class="foreground"/><use xlink:href="#g5" y="5117"/></g><g><use xlink:href="#g4" y="5168"/><use xlink:href="#g6" y="5185"/><use xlink:href="#g7" y="5202"/><use xlink:href="#g8" y="5219"/><use xlink:href="#g9" y="5236"/><use xlink:href="#g10" y="5253"/><use xlink:href="#g11" y="5270"/><use xlink:href="#g17" y="5287"/><use xlink:href="#g18" y="5304"/><use xlink:href="#g19" y="5321"/><rect x="0" y="5338" width="272" height="17" class="color2"/><use xlink:href="#g20" y="5338"/><use xlink:href="#g21" y="5355"/><use xlink:href="#g22" y="5372"/><rect x="16" y="5389" width="8" height="17" class="foreground"/><use xlink:href="#g1" y="5389"/></g><g><use xlink:href="#g4" y="5440"/><use xlink:href="#g6" y="5457"/><use xlink:href="#g7" y="5474"/><use xlink:href="#g8" y="5491"/><use xlink:href="#g9" y="5508"/><use xlink:href="#g10" y="5525"/><use xlink:href="#g11" y="5542"/><use xlink:href="#g17" y="5559"/><use xlink:href="#g18" y="5576"/><use xlink:href="#g19" y="5593"/><rect x="0" y="5610" width="272" height="17" class="color2"/><use xlink:href="#g20" y="5610"/><use xlink:href="#g21" y="5627"/><use xlink:href="#g22" y="5644"/><rect x="24" y="5661" width="8" height="17" class="foreground"/><use xlink:href="#g23" y="5661"/></g><g><use xlink:href="#g4" y="5712"/><use xlink:href="#g6" y="5729"/><use xlink:href="#g7" y="5746"/><use xlink:href="#g8" y="5763"/><use xlink:href="#g9" y="5780"/><use xlink:href="#g10" y="5797"/><use xlink:href="#g11" y="5814"/><use xlink:href="#g17" y="5831"/><use xlink:href="#g18" y="5848"/><use xlink:href="#g19" y="5865"/><rect x="0" y="5882" width="272" height="17" class="color2"/><use xlink:href="#g20" y="5882"/><use xlink:href="#g21" y="5899"/><use xlink:href="#g22" y="5916"/><rect x="32" y="5933" width="8" height="17" class="foreground"/><use xlink:href="#g24" y="5933"/></g><g><use xlink:href="#g4" y="5984"/><use xlink:href="#g6" y="6001"/><use xlink:href="#g7" y="6018"/><use xlink:href="#g8" y="6035"/><use xlink:href="#g9" y="6052"/><use xlink:href="#g10" y="6069"/><use xlink:href="#g11" y="6086"/><use xlink:href="#g17" y="6103"/><use xlink:href="#g18" y="6120"/><use xlink:href="#g19" y="6137"/><rect x="0" y="6154" width="272" height="17" class="color2"/><use xlink:href="#g20" y="6154"/><use xlink:href="#g21" y="6171"/><use xlink:href="#g22" y="6188"/><rect x="40" y="6205" width="8" height="17" class="foreground"/><use xlink:href="#g25" y="6205"/></g><g><use xlink:href="#g4" y="6256"/><use xlink:href="#g6" y="6273"/><use xlink:href="#g7" y="6290"/><use xlink:href="#g8" y="6307"/><use xlink:href="#g9" y="6324"/><use xlink:href="#g10" y="6341"/><use xlink:href="#g11" y="6358"/><use xlink:href="#g17" y="6375"/><use xlink:href="#g18" y="6392"/><use xlink:href="#g19" y="6409"/><rect x="0" y="6426" width="272" height="17" class="color2"/><use xlink:href="#g20" y="6426"/><use xlink:href="#g21" y="6443"/><use xlink:href="#g22" y="6460"/><rect x="48" y="6477" width="8" height="17" class="foreground"/><use xlink:href="#g26" y="6477"/></g><g><use xlink:href="#g4" y="6528"/><use xlink:href="#g6" y="6545"/><use xlink:href="#g7" y="6562"/><use xlink:href="#g8" y="6579"/><use xlink:href="#g9" y="6596"/><use xlink:href="#g10" y="6613"/><use xlink:href="#g11" y="6630"/><use xlink:href="#g17" y="6647"/><use xlink:href="#g18" y="6664"/><use xlink:href="#g19" y="6681"/><rect x="0" y="6698" width="272" height="17" class="color2"/><use xlink:href="#g20" y="6698"/><use xlink:href="#g21" y="6715"/><use xlink:href="#g22" y="6732"/><use xlink:href="#g27" y="6749"/><rect x="0" y="6766" width="8" height="17" class="foreground"/><use xlink:href="#g5" y="6766"/></g><g><use xlink:href="#g6" y="6800"/><use xlink:href="#g7" y="6817"/><use xlink:href="#g8" y="6834"/><use xlink:href="#g9" y="6851"/><use xlink:href="#g10" y="6868"/><use xlink:href="#g11" y="6885"/><use xlink:href="#g17" y="6902"/><use xlink:href="#g18" y="6919"/><use xlink:href="#g19" y="6936"/><rect x="0" y="6953" width="272" height="17" class="color2"/><use xlink:href="#g20" y="6953"/><use xlink:href="#g21" y="6970"/><use xlink:href="#g22" y="6987"/><use xlink:href="#g27" y="7004"/><use xlink:href="#g28" y="7021"/><rect x="0" y="7038" width="8" height="17" class="foreground"/><use xlink:href="#g5" y="7038"/></g></g></svg>
</svg>